HIERARCHY
ROOT hip
{
  OFFSET -2.24527 106.865 -0.482383
  CHANNELS 6 Xposition Yposition Zposition Zrotation Xrotation Yrotation
  JOINT rButtock
  {
    OFFSET -4.19761 -0.599656 -0.299829
    CHANNELS 3 Zrotation Xrotation Yrotation
    JOINT rThigh
    {
      OFFSET 0 -1.49915 0
      CHANNELS 3 Zrotation Xrotation Yrotation
      JOINT rShin
      {
        OFFSET 0.699602 -17.6899 -1.09938
        CHANNELS 3 Zrotation Xrotation Yrotation
        JOINT rFoot
        {
          OFFSET -0.699602 -18.0897 -0.699602
          CHANNELS 3 Zrotation Xrotation Yrotation
          End Site
          {
            OFFSET 0 -2.09881 5.59681
          }
        }
      }
    }
  }
  JOINT abdomen
  {
    OFFSET 0 6.09653 0.699602
    CHANNELS 3 Zrotation Xrotation Yrotation
    JOINT chest
    {
      OFFSET 0 2.49857 -0.699602
      CHANNELS 3 Zrotation Xrotation Yrotation
      JOINT rCollar
      {
        OFFSET -1.49915 11.2936 -1.69903
        CHANNELS 3 Zrotation Xrotation Yrotation
        JOINT rShldr
        {
          OFFSET -4.89721 -0.299829 0.799545
          CHANNELS 3 Zrotation Xrotation Yrotation
          JOINT rForeArm
          {
            OFFSET -12.4216 -1.19922 0.931564
            CHANNELS 3 Zrotation Xrotation Yrotation
            JOINT rHand
            {
              OFFSET -9.86568 0.0998477 3.66582
              CHANNELS 3 Zrotation Xrotation Yrotation
              JOINT rMid1
              {
                OFFSET -2.99829 0.499717 1.09937
                CHANNELS 3 Zrotation Xrotation Yrotation
                JOINT rMid2
                {
                  OFFSET -1.45827 -0.0999391 0.600149
                  CHANNELS 3 Zrotation Xrotation Yrotation
                  End Site
                  {
                    OFFSET -1.0403 -0.0999474 0.399282
                  }
                }
              }
              JOINT rRing1
              {
                OFFSET -3.39807 0.399775 0.299829
                CHANNELS 3 Zrotation Xrotation Yrotation
                JOINT rRing2
                {
                  OFFSET -1.29926 -0.199888 0.399772
                  CHANNELS 3 Zrotation Xrotation Yrotation
                  End Site
                  {
                    OFFSET -0.899487 -0.0999402 0.199886
                  }
                }
              }
              JOINT rThumb1
              {
                OFFSET -0.399773 -0.39977 1.19932
                CHANNELS 3 Zrotation Xrotation Yrotation
                JOINT rThumb2
                {
                  OFFSET -0.998132 0 1.47145
                  CHANNELS 3 Zrotation Xrotation Yrotation
                  End Site
                  {
                    OFFSET -0.977841 -0.278837 0.829828
                  }
                }
              }
              JOINT rPinky1
              {
                OFFSET -3.29812 0.0999423 -0.399772
                CHANNELS 3 Zrotation Xrotation Yrotation
                JOINT rPinky2
                {
                  OFFSET -0.899492 -0.0999405 0
                  CHANNELS 3 Zrotation Xrotation Yrotation
                  End Site
                  {
                    OFFSET -0.999429 -0.0999421 0
                  }
                }
              }
              JOINT rIndex1
              {
                OFFSET -2.69847 0.399775 2.09881
                CHANNELS 3 Zrotation Xrotation Yrotation
                JOINT rIndex2
                {
                  OFFSET -1.33823 -0.200883 0.6843
                  CHANNELS 3 Zrotation Xrotation Yrotation
                  End Site
                  {
                    OFFSET -0.760569 0.00099747 0.415074
                  }
                }
              }
            }
          }
        }
      }
      JOINT neck
      {
        OFFSET 0 12.4929 -0.499715
        CHANNELS 3 Zrotation Xrotation Yrotation
        JOINT head
        {
          OFFSET 0 3.59795 0.299829
          CHANNELS 3 Zrotation Xrotation Yrotation
          JOINT leftEye
          {
            OFFSET 1.19932 3.69789 3.19818
            CHANNELS 3 Zrotation Xrotation Yrotation
            End Site
            {
              OFFSET 0 0 0
            }
          }
          JOINT rightEye
          {
            OFFSET -1.19932 3.69789 3.19818
            CHANNELS 3 Zrotation Xrotation Yrotation
            End Site
            {
              OFFSET 0 0 0
            }
          }
        }
      }
      JOINT lCollar
      {
        OFFSET 1.49915 11.2936 -1.69903
        CHANNELS 3 Zrotation Xrotation Yrotation
        JOINT lShldr
        {
          OFFSET 4.89721 -0.299833 0.799545
          CHANNELS 3 Zrotation Xrotation Yrotation
          JOINT lForeArm
          {
            OFFSET 12.4216 -1.19922 0.931564
            CHANNELS 3 Zrotation Xrotation Yrotation
            JOINT lHand
            {
              OFFSET 9.86568 0.0998482 3.66582
              CHANNELS 3 Zrotation Xrotation Yrotation
              JOINT lMid1
              {
                OFFSET 2.99829 0.499714 1.09937
                CHANNELS 3 Zrotation Xrotation Yrotation
                JOINT lMid2
                {
                  OFFSET 1.45827 -0.0999388 0.600149
                  CHANNELS 3 Zrotation Xrotation Yrotation
                  End Site
                  {
                    OFFSET 1.04031 -0.0999473 0.399282
                  }
                }
              }
              JOINT lPinky1
              {
                OFFSET 3.29812 0.0999421 -0.399772
                CHANNELS 3 Zrotation Xrotation Yrotation
                JOINT lPinky2
                {
                  OFFSET 0.899488 -0.0999427 0
                  CHANNELS 3 Zrotation Xrotation Yrotation
                  End Site
                  {
                    OFFSET 0.999427 -0.0999418 0
                  }
                }
              }
              JOINT lRing1
              {
                OFFSET 3.39806 0.399773 0.299829
                CHANNELS 3 Zrotation Xrotation Yrotation
                JOINT lRing2
                {
                  OFFSET 1.29926 -0.199886 0.399772
                  CHANNELS 3 Zrotation Xrotation Yrotation
                  End Site
                  {
                    OFFSET 0.899489 -0.0999425 0.199886
                  }
                }
              }
              JOINT lIndex1
              {
                OFFSET 2.69846 0.399775 2.09881
                CHANNELS 3 Zrotation Xrotation Yrotation
                JOINT lIndex2
                {
                  OFFSET 1.33823 -0.200884 0.6843
                  CHANNELS 3 Zrotation Xrotation Yrotation
                  End Site
                  {
                    OFFSET 0.760567 0.00099574 0.415074
                  }
                }
              }
              JOINT lThumb1
              {
                OFFSET 0.399772 -0.399773 1.19932
                CHANNELS 3 Zrotation Xrotation Yrotation
                JOINT lThumb2
                {
                  OFFSET 0.99813 0 1.47145
                  CHANNELS 3 Zrotation Xrotation Yrotation
                  End Site
                  {
                    OFFSET 0.97784 -0.27884 0.829828
                  }
                }
              }
            }
          }
        }
      }
    }
  }
  JOINT lButtock
  {
    OFFSET 4.19761 -0.599656 -0.299829
    CHANNELS 3 Zrotation Xrotation Yrotation
    JOINT lThigh
    {
      OFFSET 0 -1.49914 0
      CHANNELS 3 Zrotation Xrotation Yrotation
      JOINT lShin
      {
        OFFSET -0.699602 -17.6899 -1.09937
        CHANNELS 3 Zrotation Xrotation Yrotation
        JOINT lFoot
        {
          OFFSET 0.699602 -18.0897 -0.699602
          CHANNELS 3 Zrotation Xrotation Yrotation
          End Site
          {
            OFFSET 0 -2.0988 5.59681
          }
        }
      }
    }
  }
}
MOTION
Frames:	5
Frame Time:	0.0333333
-2.24527 106.865 -0.482383 6.3762 -4.22262 42.4321 -0.00975517 -0.00969887 -0.00983547 -24.9445 -14.8213 -31.9969 5.20703 54.7751 -17.0997 -5.01641 10.3281 0.245983 -0.00975517 -0.00975351 -0.00975351 -6.1703 3.08204 5.30547 0.396516 -0.0082216 17.9541 7.14825 33.3328 50.172 -12.8326 -39.8143 132.986 31.2431 4.38301 -24.4021 1.84571 1.02832 28.013 -0.243675 0.394432 1.44876 1.84463 1.02332 28.0095 2.42704 -0.497593 4.4329 1.8765 1.0053 28.0257 -9.40282 -7.91099 -0.69994 1.83969 1.02684 28.0275 0.629425 -0.00953166 -0.000952466 1.84104 1.04198 28.023 8.61171 -0.00190223 -1.79828 3.95655 -3.46701 -5.08034 -0.441992 28.3975 -31.5264 0 0 0 0 0 0 -4.90776 1.33584 -14.2945 -67.4664 7.90363 23.4959 26.6117 -10.5021 -87.178 -20.6504 3.88216 18.6863 -1.91292 1.08254 -28.0857 0.181555 0.424301 -1.45108 -1.89063 1.08193 -28.0686 -0.629806 -0.0099583 0.00100871 -1.90892 1.07501 -28.0899 -2.42835 -0.502432 -4.4324 -1.90214 1.09714 -28.0878 -8.62278 -0.0233164 1.79819 -1.87818 1.06148 -28.0917 9.40787 -7.94586 0.599069 -0.00975517 -0.00983547 -0.00969887 1.16115 -8.31066 4.92351 -3.21711 29.4459 7.33984 -5.65624 -3.44764 -0.0850736 
-2.69045 107.645 1.87932 5.82861 -5.76554 39.4528 -0.00975517 -0.00969887 -0.00983547 -24.6046 -11.2289 -34.2587 4.82544 43.3985 -12.5692 -14.5238 6.03193 1.09292 -0.00975517 -0.00975351 -0.00975351 -5.78946 2.41828 4.76751 -0.551328 -0.260388 15.474 9.08697 29.677 44.0701 -10.7599 -41.9086 136.708 19.0035 4.93744 -11.2834 1.84571 1.02832 28.013 -0.243675 0.394432 1.44876 1.84463 1.02332 28.0095 2.42704 -0.497592 4.4329 1.8765 1.0053 28.0257 -9.40282 -7.91099 -0.69994 1.83969 1.02684 28.0275 0.629425 -0.00953166 -0.000952466 1.84104 1.04198 28.023 8.61171 -0.00190223 -1.79828 4.67822 -2.81425 -4.55823 -1.55887 27.629 -32.5791 0 0 0 0 0 0 -4.44474 1.29376 -15.2924 -67.7641 6.04897 25.6835 29.6555 -13.783 -89.5042 -24.4875 4.5322 19.2408 -1.91292 1.08254 -28.0857 0.181555 0.424301 -1.45108 -1.89063 1.08193 -28.0686 -0.629806 -0.0099583 0.00100871 -1.90892 1.07501 -28.0899 -2.42835 -0.502432 -4.4324 -1.90214 1.09714 -28.0878 -8.62279 -0.0233164 1.79819 -1.87818 1.06148 -28.0917 9.40787 -7.94586 0.599069 -0.00975517 -0.00983547 -0.00969887 4.34524 -2.52459 11.4164 -0.777838 23.582 2.84747 -7.10427 -0.111621 0.264502 
-3.17566 108.222 4.31123 5.14444 -7.18148 37.0413 -0.00975517 -0.00969887 -0.00983547 -20.0842 -9.50658 -27.5441 4.37164 31.0352 -12.7139 -16.0328 3.81449 1.00715 -0.00975517 -0.00975351 -0.00975351 -5.09641 1.55954 3.54674 -2.67487 -0.697961 12.6843 13.3614 21.4777 31.4828 -7.59771 -35.0422 138.426 9.29095 1.99067 -14.9013 1.84571 1.02832 28.013 -0.243675 0.394432 1.44876 1.84463 1.02332 28.0095 2.42704 -0.497592 4.4329 1.8765 1.0053 28.0257 -9.40282 -7.91099 -0.69994 1.83969 1.02684 28.0275 0.629425 -0.00953166 -0.000952466 1.84104 1.04198 28.023 8.61171 -0.00190223 -1.79828 5.15863 -1.88368 -3.38892 -2.9235 25.4041 -31.9605 0 0 0 0 0 0 -4.48171 1.3494 -16.1517 -67.0149 3.33015 28.3283 28.6358 -15.6964 -92.5646 -28.9842 5.74175 18.1444 -1.91292 1.08254 -28.0857 0.181555 0.424301 -1.45108 -1.89063 1.08193 -28.0686 -0.629806 -0.0099583 0.00100871 -1.90892 1.07501 -28.0899 -2.42836 -0.502432 -4.4324 -1.90214 1.09714 -28.0878 -8.6228 -0.0233164 1.79819 -1.87818 1.06148 -28.0917 9.40787 -7.94586 0.599069 -0.00975517 -0.00983547 -0.00969887 6.95682 1.27996 12.5948 -0.164739 20.5666 3.94718 -8.02389 4.12066 0.760381 
-3.72122 108.496 6.90534 4.48983 -8.45095 35.7225 -0.00975517 -0.00969887 -0.00983547 -16.1537 -9.43902 -24.288 0.552821 22.7304 -4.08451 -10.3827 13.2948 1.09072 -0.00975517 -0.00975351 -0.00975351 -4.88186 0.290546 2.07124 -3.35147 -0.792635 10.4485 14.9957 11.5481 13.2417 -10.4107 -31.2709 131.837 18.3502 -0.68101 -42.5305 1.84571 1.02832 28.013 -0.243675 0.394432 1.44876 1.84463 1.02332 28.0095 2.4274 -0.497591 4.4329 1.8765 1.0053 28.0257 -9.40282 -7.91099 -0.69994 1.83969 1.02684 28.0275 0.629425 -0.00953166 -0.000952466 1.84104 1.04197 28.023 8.61207 -0.00190223 -1.79828 6.12066 -0.520515 -2.0379 -3.89546 22.2052 -32.2123 0 0 0 0 0 0 -4.12381 1.32908 -17.3098 -64.3773 0.156047 30.4542 23.3175 -14.7316 -95.8232 -38.3406 8.09957 17.309 -1.91292 1.08254 -28.0857 0.181555 0.424301 -1.45108 -1.89063 1.08193 -28.0686 -0.629806 -0.0099583 0.00100871 -1.90892 1.07501 -28.0899 -2.42837 -0.502432 -4.4324 -1.90214 1.09714 -28.0878 -8.62281 -0.0233164 1.79819 -1.87818 1.06148 -28.0917 9.40787 -7.94586 0.599069 -0.00975517 -0.00983547 -0.00969887 9.8255 3.94793 12.6361 0.0105028 19.4191 5.33219 -8.76037 7.6507 1.2231 
-4.38599 108.329 9.52223 3.84542 -9.76934 36.2984 -0.00975517 -0.00969887 -0.00983547 -12.8228 -8.7243 -20.9548 0.425046 20.8257 2.54772 -5.37956 13.4224 0.318174 -0.00975517 -0.00975351 -0.00975351 -5.0192 -0.412063 0.352908 -4.76557 -1.02741 10.0449 17.8319 8.28898 -5.10283 -32.0797 -34.5902 106.755 42.0881 -6.43349 -56.0295 1.84571 1.02832 28.013 -0.243675 0.394432 1.44876 1.84463 1.02332 28.0095 2.42704 -0.497591 4.4329 1.8765 1.0053 28.0257 -9.40282 -7.91099 -0.69994 1.83968 1.02684 28.0275 0.629425 -0.00953166 -0.000952466 1.84105 1.04197 28.023 8.61171 -0.00190223 -1.79828 7.67802 0.356803 -0.415991 -4.9166 18.5915 -33.3378 0 0 0 0 0 0 -3.62634 1.30631 -19.2863 -61.6463 -2.54302 29.8443 -3.31243 -0.426053 -102.191 -38.9559 -0.098082 39.9402 -1.91292 1.08254 -28.0857 0.181555 0.424301 -1.45108 -1.89063 1.08193 -28.0686 -0.629806 -0.0099583 0.00100871 -1.90892 1.07501 -28.0899 -2.42838 -0.502432 -4.4324 -1.90214 1.09714 -28.0878 -8.62281 -0.0233164 1.79819 -1.87818 1.06148 -28.0917 9.40787 -7.94586 0.599069 -0.00975517 -0.00983547 -0.00969887 14.0026 4.43226 10.8086 -0.444074 22.2091 6.06579 -11.7923 8.16124 1.61999 
